<svg viewBox="0 0 48 48" xmlns="http://www.w3.org/2000/svg" xmlns:xlink="http://www.w3.org/1999/xlink" width="48" height="48">
<defs>



 <path fill="#231f20" id="i-2472" d="M40,18H8V0h20v12h12V18z M29,28h-1v3h1c0.55,0,1-0.45,1-1v-1C30,28.45,29.55,28,29,28z M30,0.59V10h9.41L30,0.59z M44,20v22 H4V20H44z M22,26h-6v2h3.8L16,33.7V36h6v-2h-3.8l3.8-5.7V26z M25,26h-2v10h2V26z M32,29c0-1.65-1.35-3-3-3h-3v10h2v-3h1 c1.65,0,3-1.35,3-3V29z M8,48h32v-4H8V48z"/> 
</defs>

<use x="0" y="0" xlink:href="#i-2472"/>

</svg>